<svg xmlns="http://www.w3.org/2000/svg" width="1200" height="760" viewBox="0 0 1200 760" role="img" aria-labelledby="title desc">
<title id="title">Электроника и внешние нагрузки</title><desc id="desc">Плата получает сигналы датчиков и управляет контакторами, клапанами и приводами.</desc>
<defs>
  <linearGradient id="bg" x1="0" y1="0" x2="1" y2="1"><stop stop-color="#f8fafc"/><stop offset="1" stop-color="#eef2f7"/></linearGradient>
  <linearGradient id="steel" x1="0" y1="0" x2="1" y2="0"><stop stop-color="#cbd5e1"/><stop offset=".45" stop-color="#f8fafc"/><stop offset="1" stop-color="#94a3b8"/></linearGradient>
  <filter id="shadow" x="-20%" y="-20%" width="140%" height="140%"><feDropShadow dx="0" dy="10" stdDeviation="12" flood-color="#0f172a" flood-opacity=".15"/></filter>
  <marker id="arrow" markerWidth="10" markerHeight="10" refX="8" refY="3" orient="auto" markerUnits="strokeWidth"><path d="M0,0 L0,6 L9,3 z" fill="#7c3aed"/></marker>
</defs>
<rect width="1200" height="760" rx="36" fill="url(#bg)"/>
<rect x="40" y="38" width="1120" height="684" rx="28" fill="#fff" stroke="#dbe3ec"/>
<text x="80" y="100" font-family="Arial, sans-serif" font-size="34" font-weight="800" fill="#0f172a">Электроника и внешние нагрузки</text>
<text x="80" y="137" font-family="Arial, sans-serif" font-size="18" fill="#475569">Плата получает сигналы датчиков и управляет контакторами, клапанами и приводами.</text>
<g filter="url(#shadow)">
<path d="M610,280 Q740.0,222 870,280 L844,492 Q740.0,555 636,492 Z" fill="url(#steel)" stroke="#64748b" stroke-width="4"/>
<path d="M638,302 Q740.0,260 842,302 L818,456 Q740.0,498 662,456 Z" fill="#e0f2fe" stroke="#7dd3fc" stroke-width="3"/>
<ellipse cx="740.0" cy="280" rx="130.0" ry="48" fill="#f8fafc" stroke="#64748b" stroke-width="4"/>
<ellipse cx="740.0" cy="288" rx="96.0" ry="32" fill="#c7d2fe" opacity=".75"/>
<rect x="646" y="502" width="34" height="86" rx="10" fill="#64748b"/><rect x="800" y="502" width="34" height="86" rx="10" fill="#64748b"/>
</g>
<rect x="100" y="220" width="320" height="300" rx="24" fill="#0f172a" filter="url(#shadow)"/><rect x="135" y="255" width="250" height="95" rx="14" fill="#1e293b" stroke="#22c55e"/><circle cx="170" cy="400" r="18" fill="#22c55e"/><circle cx="225" cy="400" r="18" fill="#38bdf8"/><circle cx="280" cy="400" r="18" fill="#eab308"/><circle cx="335" cy="400" r="18" fill="#ef4444"/>
<path d="M420 285 H610" stroke="#7c3aed" stroke-width="6" marker-end="url(#arrow)"/><path d="M420 340 H610" stroke="#0ea5e9" stroke-width="6" marker-end="url(#arrow)"/><path d="M420 395 H610" stroke="#ea580c" stroke-width="6" marker-end="url(#arrow)"/><path d="M420 450 H610" stroke="#22c55e" stroke-width="6" marker-end="url(#arrow)"/>
<g><rect x="875" y="260" width="200" height="38" rx="12" fill="#fff" stroke="#cbd5e1"/><circle cx="893" cy="279" r="6" fill="#ea580c"/><text x="909" y="285" font-family="Arial, sans-serif" font-size="16" font-weight="700" fill="#334155">Датчики</text></g><g><rect x="875" y="330" width="200" height="38" rx="12" fill="#fff" stroke="#cbd5e1"/><circle cx="893" cy="349" r="6" fill="#ea580c"/><text x="909" y="355" font-family="Arial, sans-serif" font-size="16" font-weight="700" fill="#334155">Контакторы</text></g><g><rect x="875" y="400" width="200" height="38" rx="12" fill="#fff" stroke="#cbd5e1"/><circle cx="893" cy="419" r="6" fill="#ea580c"/><text x="909" y="425" font-family="Arial, sans-serif" font-size="16" font-weight="700" fill="#334155">Клапаны</text></g><g><rect x="875" y="470" width="200" height="38" rx="12" fill="#fff" stroke="#cbd5e1"/><circle cx="893" cy="489" r="6" fill="#ea580c"/><text x="909" y="495" font-family="Arial, sans-serif" font-size="16" font-weight="700" fill="#334155">Приводы</text></g>

<g transform="translate(80 684)"><rect width="340" height="26" rx="13" fill="#7c3aed" opacity=".12"/><text x="16" y="19" font-family="Arial, sans-serif" font-size="13" font-weight="700" fill="#7c3aed">УСЛОВНАЯ ИНЖЕНЕРНАЯ СХЕМА • НЕ МОНТАЖНЫЙ ЧЕРТЁЖ</text></g>
</svg>