<svg xmlns="http://www.w3.org/2000/svg" width="1200" height="760" viewBox="0 0 1200 760" role="img" aria-labelledby="title desc">
<title id="title">Нагрев и силовая часть</title><desc id="desc">Питание, коммутация, ТЭНы, изоляция и защитная цепь образуют один диагностический маршрут.</desc>
<defs>
  <linearGradient id="bg" x1="0" y1="0" x2="1" y2="1"><stop stop-color="#f8fafc"/><stop offset="1" stop-color="#eef2f7"/></linearGradient>
  <linearGradient id="steel" x1="0" y1="0" x2="1" y2="0"><stop stop-color="#cbd5e1"/><stop offset=".45" stop-color="#f8fafc"/><stop offset="1" stop-color="#94a3b8"/></linearGradient>
  <filter id="shadow" x="-20%" y="-20%" width="140%" height="140%"><feDropShadow dx="0" dy="10" stdDeviation="12" flood-color="#0f172a" flood-opacity=".15"/></filter>
  <marker id="arrow" markerWidth="10" markerHeight="10" refX="8" refY="3" orient="auto" markerUnits="strokeWidth"><path d="M0,0 L0,6 L9,3 z" fill="#dc2626"/></marker>
</defs>
<rect width="1200" height="760" rx="36" fill="url(#bg)"/>
<rect x="40" y="38" width="1120" height="684" rx="28" fill="#fff" stroke="#dbe3ec"/>
<text x="80" y="100" font-family="Arial, sans-serif" font-size="34" font-weight="800" fill="#0f172a">Нагрев и силовая часть</text>
<text x="80" y="137" font-family="Arial, sans-serif" font-size="18" fill="#475569">Питание, коммутация, ТЭНы, изоляция и защитная цепь образуют один диагностический маршрут.</text>
<g filter="url(#shadow)">
<path d="M470,260 Q630.0,202 790,260 L764,532 Q630.0,595 496,532 Z" fill="url(#steel)" stroke="#64748b" stroke-width="4"/>
<path d="M498,282 Q630.0,240 762,282 L738,496 Q630.0,538 522,496 Z" fill="#e0f2fe" stroke="#7dd3fc" stroke-width="3"/>
<ellipse cx="630.0" cy="260" rx="160.0" ry="48" fill="#f8fafc" stroke="#64748b" stroke-width="4"/>
<ellipse cx="630.0" cy="268" rx="126.0" ry="32" fill="#c7d2fe" opacity=".75"/>
<rect x="506" y="542" width="34" height="86" rx="10" fill="#64748b"/><rect x="720" y="542" width="34" height="86" rx="10" fill="#64748b"/>
</g>
<g transform="translate(855 230)"><rect width="230" height="270" rx="22" fill="#0f172a"/><text x="28" y="45" font-family="Arial" font-size="17" fill="#fff">3-фазное питание</text><path d="M35 85 H195" stroke="#ef4444" stroke-width="8"/><path d="M35 120 H195" stroke="#eab308" stroke-width="8"/><path d="M35 155 H195" stroke="#2563eb" stroke-width="8"/><rect x="38" y="190" width="154" height="48" rx="12" fill="#334155"/><text x="69" y="221" font-family="Arial" font-size="17" fill="#fff">Контактор</text></g>
<path d="M850 430 H760" stroke="#ea580c" stroke-width="6" marker-end="url(#arrow)"/>
<path d="M520 520 q40 -55 80 0 t80 0 t80 0" fill="none" stroke="#ef4444" stroke-width="14"/>
<g><rect x="90" y="235" width="210" height="38" rx="12" fill="#fff" stroke="#cbd5e1"/><circle cx="108" cy="254" r="6" fill="#ea580c"/><text x="124" y="260" font-family="Arial, sans-serif" font-size="16" font-weight="700" fill="#334155">Фазы и клеммы</text></g><g><rect x="90" y="325" width="210" height="38" rx="12" fill="#fff" stroke="#cbd5e1"/><circle cx="108" cy="344" r="6" fill="#ea580c"/><text x="124" y="350" font-family="Arial, sans-serif" font-size="16" font-weight="700" fill="#334155">Контакторы</text></g><g><rect x="90" y="415" width="210" height="38" rx="12" fill="#fff" stroke="#cbd5e1"/><circle cx="108" cy="434" r="6" fill="#ea580c"/><text x="124" y="440" font-family="Arial, sans-serif" font-size="16" font-weight="700" fill="#334155">ТЭНы в рубашке</text></g><g><rect x="90" y="505" width="210" height="38" rx="12" fill="#fff" stroke="#cbd5e1"/><circle cx="108" cy="524" r="6" fill="#ea580c"/><text x="124" y="530" font-family="Arial, sans-serif" font-size="16" font-weight="700" fill="#334155">Защитный термостат</text></g>

<g transform="translate(80 684)"><rect width="340" height="26" rx="13" fill="#dc2626" opacity=".12"/><text x="16" y="19" font-family="Arial, sans-serif" font-size="13" font-weight="700" fill="#dc2626">УСЛОВНАЯ ИНЖЕНЕРНАЯ СХЕМА • НЕ МОНТАЖНЫЙ ЧЕРТЁЖ</text></g>
</svg>