<svg xmlns="http://www.w3.org/2000/svg" width="1200" height="760" viewBox="0 0 1200 760" role="img" aria-labelledby="title desc">
<title id="title">Мешалка и привод</title><desc id="desc">Двигатель, редуктор, вал, блокировка крышки и нагрузка проверяются раздельно.</desc>
<defs>
  <linearGradient id="bg" x1="0" y1="0" x2="1" y2="1"><stop stop-color="#f8fafc"/><stop offset="1" stop-color="#eef2f7"/></linearGradient>
  <linearGradient id="steel" x1="0" y1="0" x2="1" y2="0"><stop stop-color="#cbd5e1"/><stop offset=".45" stop-color="#f8fafc"/><stop offset="1" stop-color="#94a3b8"/></linearGradient>
  <filter id="shadow" x="-20%" y="-20%" width="140%" height="140%"><feDropShadow dx="0" dy="10" stdDeviation="12" flood-color="#0f172a" flood-opacity=".15"/></filter>
  <marker id="arrow" markerWidth="10" markerHeight="10" refX="8" refY="3" orient="auto" markerUnits="strokeWidth"><path d="M0,0 L0,6 L9,3 z" fill="#7c3aed"/></marker>
</defs>
<rect width="1200" height="760" rx="36" fill="url(#bg)"/>
<rect x="40" y="38" width="1120" height="684" rx="28" fill="#fff" stroke="#dbe3ec"/>
<text x="80" y="100" font-family="Arial, sans-serif" font-size="34" font-weight="800" fill="#0f172a">Мешалка и привод</text>
<text x="80" y="137" font-family="Arial, sans-serif" font-size="18" fill="#475569">Двигатель, редуктор, вал, блокировка крышки и нагрузка проверяются раздельно.</text>
<g filter="url(#shadow)">
<path d="M470,260 Q630.0,202 790,260 L764,532 Q630.0,595 496,532 Z" fill="url(#steel)" stroke="#64748b" stroke-width="4"/>
<path d="M498,282 Q630.0,240 762,282 L738,496 Q630.0,538 522,496 Z" fill="#e0f2fe" stroke="#7dd3fc" stroke-width="3"/>
<ellipse cx="630.0" cy="260" rx="160.0" ry="48" fill="#f8fafc" stroke="#64748b" stroke-width="4"/>
<ellipse cx="630.0" cy="268" rx="126.0" ry="32" fill="#c7d2fe" opacity=".75"/>
<rect x="506" y="542" width="34" height="86" rx="10" fill="#64748b"/><rect x="720" y="542" width="34" height="86" rx="10" fill="#64748b"/>
</g>
<rect x="535" y="170" width="190" height="88" rx="18" fill="#334155" filter="url(#shadow)"/><circle cx="570" cy="214" r="21" fill="#22c55e"/><text x="606" y="220" font-family="Arial" font-size="20" font-weight="700" fill="#fff">Мотор-редуктор</text>
<path d="M630 258 V470" stroke="#475569" stroke-width="12"/><path d="M535 410 Q630 485 725 410" fill="none" stroke="#475569" stroke-width="14"/><path d="M565 455 Q630 505 695 455" fill="none" stroke="#475569" stroke-width="10"/>
<rect x="845" y="240" width="220" height="230" rx="22" fill="#0f172a"/><text x="875" y="292" font-family="Arial" font-size="18" fill="#fff">Преобразователь</text><rect x="875" y="320" width="160" height="90" rx="14" fill="#1e293b" stroke="#38bdf8"/><path d="M895 370 C930 325 970 415 1015 350" fill="none" stroke="#38bdf8" stroke-width="5"/>
<g><rect x="80" y="235" width="210" height="38" rx="12" fill="#fff" stroke="#cbd5e1"/><circle cx="98" cy="254" r="6" fill="#ea580c"/><text x="114" y="260" font-family="Arial, sans-serif" font-size="16" font-weight="700" fill="#334155">Крышка и блокировка</text></g><g><rect x="80" y="325" width="210" height="38" rx="12" fill="#fff" stroke="#cbd5e1"/><circle cx="98" cy="344" r="6" fill="#ea580c"/><text x="114" y="350" font-family="Arial, sans-serif" font-size="16" font-weight="700" fill="#334155">Вал и уплотнение</text></g><g><rect x="80" y="415" width="210" height="38" rx="12" fill="#fff" stroke="#cbd5e1"/><circle cx="98" cy="434" r="6" fill="#ea580c"/><text x="114" y="440" font-family="Arial, sans-serif" font-size="16" font-weight="700" fill="#334155">Рабочий орган</text></g><g><rect x="840" y="515" width="230" height="38" rx="12" fill="#fff" stroke="#cbd5e1"/><circle cx="858" cy="534" r="6" fill="#ea580c"/><text x="874" y="540" font-family="Arial, sans-serif" font-size="16" font-weight="700" fill="#334155">Частотный привод</text></g>

<g transform="translate(80 684)"><rect width="340" height="26" rx="13" fill="#7c3aed" opacity=".12"/><text x="16" y="19" font-family="Arial, sans-serif" font-size="13" font-weight="700" fill="#7c3aed">УСЛОВНАЯ ИНЖЕНЕРНАЯ СХЕМА • НЕ МОНТАЖНЫЙ ЧЕРТЁЖ</text></g>
</svg>