<svg xmlns="http://www.w3.org/2000/svg" width="1200" height="760" viewBox="0 0 1200 760" role="img" aria-labelledby="title desc">
<title id="title">Система опрокидывания</title><desc id="desc">Поворотный узел, привод, концевые положения и разрешение нагрева связаны между собой.</desc>
<defs>
  <linearGradient id="bg" x1="0" y1="0" x2="1" y2="1"><stop stop-color="#f8fafc"/><stop offset="1" stop-color="#eef2f7"/></linearGradient>
  <linearGradient id="steel" x1="0" y1="0" x2="1" y2="0"><stop stop-color="#cbd5e1"/><stop offset=".45" stop-color="#f8fafc"/><stop offset="1" stop-color="#94a3b8"/></linearGradient>
  <filter id="shadow" x="-20%" y="-20%" width="140%" height="140%"><feDropShadow dx="0" dy="10" stdDeviation="12" flood-color="#0f172a" flood-opacity=".15"/></filter>
  <marker id="arrow" markerWidth="10" markerHeight="10" refX="8" refY="3" orient="auto" markerUnits="strokeWidth"><path d="M0,0 L0,6 L9,3 z" fill="#0f766e"/></marker>
</defs>
<rect width="1200" height="760" rx="36" fill="url(#bg)"/>
<rect x="40" y="38" width="1120" height="684" rx="28" fill="#fff" stroke="#dbe3ec"/>
<text x="80" y="100" font-family="Arial, sans-serif" font-size="34" font-weight="800" fill="#0f172a">Система опрокидывания</text>
<text x="80" y="137" font-family="Arial, sans-serif" font-size="18" fill="#475569">Поворотный узел, привод, концевые положения и разрешение нагрева связаны между собой.</text>
<g transform="translate(545 225) rotate(-18 160 170)"><g filter="url(#shadow)">
<path d="M0,30 Q160.0,-28 320,30 L294,302 Q160.0,365 26,302 Z" fill="url(#steel)" stroke="#64748b" stroke-width="4"/>
<path d="M28,52 Q160.0,10 292,52 L268,266 Q160.0,308 52,266 Z" fill="#e0f2fe" stroke="#7dd3fc" stroke-width="3"/>
<ellipse cx="160.0" cy="30" rx="160.0" ry="48" fill="#f8fafc" stroke="#64748b" stroke-width="4"/>
<ellipse cx="160.0" cy="38" rx="126.0" ry="32" fill="#c7d2fe" opacity=".75"/>
<rect x="36" y="312" width="34" height="86" rx="10" fill="#64748b"/><rect x="250" y="312" width="34" height="86" rx="10" fill="#64748b"/>
</g></g>
<circle cx="545" cy="480" r="30" fill="#334155"/><path d="M545 480 L430 585" stroke="#64748b" stroke-width="18"/><rect x="315" y="560" width="190" height="55" rx="18" fill="#64748b"/>
<path d="M790 500 Q915 425 980 330" fill="none" stroke="#ea580c" stroke-width="12" marker-end="url(#arrow)"/>
<path d="M780 555 L1010 555" stroke="#475569" stroke-width="18"/><rect x="1010" y="520" width="90" height="70" rx="14" fill="#334155"/>
<g><rect x="90" y="245" width="210" height="38" rx="12" fill="#fff" stroke="#cbd5e1"/><circle cx="108" cy="264" r="6" fill="#ea580c"/><text x="124" y="270" font-family="Arial, sans-serif" font-size="16" font-weight="700" fill="#334155">Ось и опоры</text></g><g><rect x="90" y="335" width="210" height="38" rx="12" fill="#fff" stroke="#cbd5e1"/><circle cx="108" cy="354" r="6" fill="#ea580c"/><text x="124" y="360" font-family="Arial, sans-serif" font-size="16" font-weight="700" fill="#334155">Редуктор или рычаг</text></g><g><rect x="90" y="425" width="210" height="38" rx="12" fill="#fff" stroke="#cbd5e1"/><circle cx="108" cy="444" r="6" fill="#ea580c"/><text x="124" y="450" font-family="Arial, sans-serif" font-size="16" font-weight="700" fill="#334155">Концевые положения</text></g><g><rect x="830" y="605" width="250" height="38" rx="12" fill="#fff" stroke="#cbd5e1"/><circle cx="848" cy="624" r="6" fill="#ea580c"/><text x="864" y="630" font-family="Arial, sans-serif" font-size="16" font-weight="700" fill="#334155">Привод опрокидывания</text></g>

<g transform="translate(80 684)"><rect width="340" height="26" rx="13" fill="#0f766e" opacity=".12"/><text x="16" y="19" font-family="Arial, sans-serif" font-size="13" font-weight="700" fill="#0f766e">УСЛОВНАЯ ИНЖЕНЕРНАЯ СХЕМА • НЕ МОНТАЖНЫЙ ЧЕРТЁЖ</text></g>
</svg>