<?xml version="1.0" encoding="UTF-8"?>
<svg xmlns="http://www.w3.org/2000/svg" width="219.651" height="59.017"><path fill="#da062c" d="M149.949 19.433v17.169h4.685V19.433h8.384V14.75h-21.7v4.683zM213.211 35.245c1.53 1.565 1.944 1.83 3.442 1.83 1.999 0 2.998-1.808 2.998-3.09v-19.07h-4.996V30.12l-12.988-13.917c-1.53-1.564-1.998-1.801-3.496-1.801-1.999 0-2.998 1.809-2.998 3.09v19.07h4.996V21.358zM178.439 32.439c-5.135 0-7.742-.385-7.742-6.7 0-6.316 2.607-6.7 7.742-6.7s7.818.384 7.818 6.7c0 6.315-2.683 6.7-7.818 6.7m0-18.297c-8.318 0-12.988 2.127-12.988 11.597 0 9.47 4.67 11.596 12.988 11.596 8.317 0 12.988-2.126 12.988-11.596s-4.67-11.597-12.988-11.597M108.733 14.915h-4.746l.001 21.647h4.765zM93.648 28.345c3-.768 4.7-3.12 4.7-6.333 0-4.379-2.803-7.097-7.31-7.097H76.032v21.647h4.496v-7.73h7.992l4.965 7.73h5.775zm-13.12-8.791h9.57c2.819 0 3.158 1.317 3.158 2.568 0 1.254-.37 2.586-3.142 2.586H80.53zM128.29 22.965h-4.206c-3.61 0-4.346-.703-4.346-2.03 0-1.622 2.414-2.248 5.822-2.248 2.995 0 5.82.521 9.099 2.104l2.515-3.654c-3.574-2.23-7.213-2.995-11.675-2.995-6.829 0-10.815 2.6-10.815 7.033 0 4.827 3.87 6.47 8.856 6.42h4.634c4.556 0 5.163.543 5.163 2.334 0 1.779-2.522 2.877-6.578 2.877-3.568 0-7.24-.727-10.462-2.945l-2.552 3.741c3.423 2.808 7.638 3.78 12.984 3.78 7.462 0 11.746-2.804 11.746-7.682 0-4.49-3.428-6.735-10.186-6.735M58.298 20.563l4.496 8.01h-8.991l4.495-7.988zm-14.755 16h5.764l2.248-3.866h13.487l2.248 3.865h5.745L60.796 15.688c-.5-.773-1.498-1.288-2.498-1.288-1 0-1.998.515-2.497 1.288zM21.45 26.825v-7.724l-5.49-5.149-5.49 5.149v7.724z"/><path fill="#da062c" d="M15.96 4.933 3.982 16.012v16.477h23.956V16.012Zm15.97 10.065V33.85c0 1.499-1.177 2.713-2.628 2.713H2.629C1.177 36.563 0 35.349 0 33.85V14.997c0-.772.32-1.508.878-2.023L14.209.689a2.57 2.57 0 0 1 3.502 0l13.341 12.285c.559.515.878 1.251.878 2.024z"/><path fill="#595d62" d="M74.205 49.947c1.614 0 1.832-.755 1.832-1.492 0-.86-.246-1.656-2.029-1.656h-6.83v3.148zm1.95 8.7-3.465-5.325H67.18v5.325h-3.36V43.43h10.705c1.516 0 2.728.462 3.603 1.371.874.907 1.319 2.137 1.319 3.655 0 1.337-.366 2.437-1.086 3.272-.454.529-1.074.923-1.887 1.2.69 1.09 3.608 5.719 3.608 5.719zM131.19 49.947c1.609 0 1.83-.717 1.83-1.492 0-1.176-.572-1.656-1.976-1.656h-6.878v3.148zm-10.39 8.7V43.43h10.76c1.49 0 2.685.462 3.548 1.373.88.897 1.327 2.114 1.327 3.612 0 1.564-.47 2.792-1.395 3.65-.923.834-2.228 1.257-3.882 1.257h-6.992v5.325z"/><path fill="#595d62" d="M90.964 46.24c-4.489 0-5.704.594-5.704 4.765 0 4.182 1.215 4.777 5.704 4.777 4.497 0 5.715-.595 5.715-4.777 0-4.171-1.218-4.764-5.715-4.764m0 12.776c-2.365 0-4.789-.181-6.494-1.49-1.708-1.302-2.47-3.314-2.47-6.522 0-3.203.762-5.21 2.47-6.51C86.193 43.182 88.609 43 90.965 43c2.366 0 4.792.181 6.504 1.496 1.705 1.3 2.466 3.307 2.466 6.509 0 3.197-.761 5.208-2.466 6.521-1.706 1.31-4.134 1.49-6.504 1.49"/><path fill="#595d62" d="M52.296 58.998c-2.277 0-4.832-.174-6.515-1.465-1.67-1.269-2.482-3.384-2.482-6.467 0-3.145.835-5.376 2.483-6.634 1.695-1.288 4.244-1.461 6.514-1.461 3.317 0 6.59.406 8.063 3.35l.312.631-2.968 1.36-.266-.52c-.608-1.131-2.071-1.594-5.048-1.594-4.61 0-5.803 1-5.803 4.868 0 4.038 1.356 4.684 5.71 4.684 3.97 0 5.195-.556 5.395-2.554h-6.14v-3.207h9.647l.01.206c.001.025.03.63 0 1.477-.205 6.08-3.71 7.326-8.912 7.326M109.917 58.97c-3.383 0-7.881-.577-7.881-5.57v-9.978h3.35v9.672c0 1.717 1.44 2.517 4.53 2.517 3.082 0 4.517-.8 4.517-2.517v-9.681h3.355V53.4c0 4.992-4.492 5.57-7.871 5.57"/></svg>