<svg xmlns="http://www.w3.org/2000/svg" width="1200" height="760" viewBox="0 0 1200 760" role="img" aria-labelledby="t d"><title id="t">Плата пароконвектомата</title><desc id="d">Датчики и нагрузки связаны с модулем управления</desc><defs><linearGradient id="g" x1="0" x2="1" y1="0" y2="1"><stop stop-color="#020617"/><stop offset="1" stop-color="#172554"/></linearGradient><pattern id="p" width="48" height="48" patternUnits="userSpaceOnUse"><path d="M48 0H0V48" fill="none" stroke="#334155" stroke-width="1" opacity=".45"/></pattern></defs><rect width="1200" height="760" rx="36" fill="url(#g)"/><rect width="1200" height="760" rx="36" fill="url(#p)"/><rect x="54" y="52" width="360" height="46" rx="23" fill="#fb7185"/><text x="234" y="82" text-anchor="middle" fill="#07111f" font-family="Arial" font-size="20" font-weight="900">ТЕХНИЧЕСКАЯ ЗАГЛУШКА</text><text x="70" y="158" fill="#fff" font-family="Arial" font-size="46" font-weight="900">Плата пароконвектомата</text><text x="70" y="207" fill="#cbd5e1" font-family="Arial" font-size="22">Датчики и нагрузки связаны с модулем управления</text><path d="M 224 420 C 327 420, 327 420, 431 420" fill="none" stroke="#fb7185" stroke-width="5" stroke-dasharray="12 10"/><path d="M 519 420 C 622 420, 622 420, 726 420" fill="none" stroke="#fb7185" stroke-width="5" stroke-dasharray="12 10"/><path d="M 814 420 C 910 420, 910 420, 1006 420" fill="none" stroke="#fb7185" stroke-width="5" stroke-dasharray="12 10"/><g><circle cx="180" cy="420" r="42" fill="#0f172a" stroke="#fb7185" stroke-width="4"/><text x="180" y="426" text-anchor="middle" fill="#fff" font-family="Arial" font-size="22" font-weight="700">ДАТЧИК</text></g><g><circle cx="475" cy="420" r="42" fill="#0f172a" stroke="#fb7185" stroke-width="4"/><text x="475" y="426" text-anchor="middle" fill="#fff" font-family="Arial" font-size="22" font-weight="700">CPU</text></g><g><circle cx="770" cy="420" r="42" fill="#0f172a" stroke="#fb7185" stroke-width="4"/><text x="770" y="426" text-anchor="middle" fill="#fff" font-family="Arial" font-size="22" font-weight="700">РЕЛЕ</text></g><g><circle cx="1050" cy="420" r="42" fill="#0f172a" stroke="#fb7185" stroke-width="4"/><text x="1050" y="426" text-anchor="middle" fill="#fff" font-family="Arial" font-size="22" font-weight="700">НАГРУЗКА</text></g><rect x="70" y="650" width="1060" height="58" rx="18" fill="#ffffff" fill-opacity=".07" stroke="#ffffff" stroke-opacity=".15"/><text x="600" y="687" text-anchor="middle" fill="#e2e8f0" font-family="Arial" font-size="20">Не является фотографией конкретного ремонта или оснащения мастерской</text></svg>