<svg xmlns="http://www.w3.org/2000/svg" width="1200" height="760" viewBox="0 0 1200 760" role="img" aria-labelledby="title desc">
<title id="title">Пламя появилось, но подтверждение потеряно</title><desc id="desc">Заглушка до появления реального фото электрода ионизации и горелки.</desc>
<defs><linearGradient id="bg" x1="0" y1="0" x2="1" y2="1"><stop stop-color="#0f172a"/><stop offset="1" stop-color="#7c2d12"/></linearGradient><pattern id="grid" width="40" height="40" patternUnits="userSpaceOnUse"><path d="M40 0H0V40" fill="none" stroke="#ffffff" stroke-opacity=".06"/></pattern></defs>
<rect width="1200" height="760" rx="36" fill="url(#bg)"/><rect width="1200" height="760" rx="36" fill="url(#grid)"/>
<g fill="none" stroke="#fb923c" stroke-width="10" stroke-linecap="round" stroke-linejoin="round"><path d="M480 455c-75-90 20-140 5-235 90 65 145 145 70 235-20 24-54 38-80 28-8-3-13-14-5-28z"/><path d="M180 520h180l55-70 80 95 65-170 70 145h210"/></g>
<rect x="70" y="62" width="310" height="44" rx="22" fill="#fb923c"/><text x="225" y="91" text-anchor="middle" font-family="Arial,sans-serif" font-size="20" font-weight="700" fill="#111827">ТЕХНИЧЕСКАЯ ЗАГЛУШКА</text>
<text x="600" y="690" text-anchor="middle" font-family="Arial,sans-serif" font-size="32" font-weight="700" fill="#ffffff">Пламя появилось, но подтверждение потеряно</text>
<text x="600" y="727" text-anchor="middle" font-family="Arial,sans-serif" font-size="18" fill="#cbd5e1">Не является фотографией реального газового узла</text>
</svg>