<svg xmlns="http://www.w3.org/2000/svg" width="1200" height="760" viewBox="0 0 1200 760" role="img" aria-labelledby="title desc">
<title id="title">Газовый пароконвектомат: схема диагностики</title><desc id="desc">Реальное фото газового узла будет добавлено после получения профильного медиапака.</desc>
<defs><linearGradient id="bg" x1="0" y1="0" x2="1" y2="1"><stop stop-color="#0f172a"/><stop offset="1" stop-color="#312e81"/></linearGradient><pattern id="grid" width="40" height="40" patternUnits="userSpaceOnUse"><path d="M40 0H0V40" fill="none" stroke="#ffffff" stroke-opacity=".06"/></pattern></defs>
<rect width="1200" height="760" rx="36" fill="url(#bg)"/><rect width="1200" height="760" rx="36" fill="url(#grid)"/>
<g fill="none" stroke="#f59e0b" stroke-width="10" stroke-linecap="round" stroke-linejoin="round"><rect x="360" y="180" width="320" height="380" rx="30"/><rect x="410" y="225" width="220" height="180" rx="18"/><circle cx="470" cy="480" r="22"/><circle cx="570" cy="480" r="22"/><path d="M250 250h80M710 250h90M250 400h80M710 400h90"/><circle cx="220" cy="250" r="18"/><circle cx="830" cy="250" r="18"/><circle cx="220" cy="400" r="18"/><circle cx="830" cy="400" r="18"/></g>
<rect x="70" y="62" width="310" height="44" rx="22" fill="#f59e0b"/><text x="225" y="91" text-anchor="middle" font-family="Arial,sans-serif" font-size="20" font-weight="700" fill="#111827">ТЕХНИЧЕСКАЯ ЗАГЛУШКА</text>
<text x="600" y="690" text-anchor="middle" font-family="Arial,sans-serif" font-size="32" font-weight="700" fill="#ffffff">Газовый пароконвектомат: схема диагностики</text>
<text x="600" y="727" text-anchor="middle" font-family="Arial,sans-serif" font-size="18" fill="#cbd5e1">Не является фотографией реального газового узла</text>
</svg>