<svg xmlns="http://www.w3.org/2000/svg" width="1200" height="760" viewBox="0 0 1200 760" role="img" aria-labelledby="title desc">
<title id="title">Пять контуров установки: газ, воздух, вода, слив и электрика</title><desc id="desc">Заглушка до появления фотографии подготовленного места и реальных подключений.</desc>
<defs><linearGradient id="bg" x1="0" y1="0" x2="1" y2="1"><stop stop-color="#0f172a"/><stop offset="1" stop-color="#064e3b"/></linearGradient><pattern id="grid" width="40" height="40" patternUnits="userSpaceOnUse"><path d="M40 0H0V40" fill="none" stroke="#ffffff" stroke-opacity=".06"/></pattern></defs>
<rect width="1200" height="760" rx="36" fill="url(#bg)"/><rect width="1200" height="760" rx="36" fill="url(#grid)"/>
<g fill="none" stroke="#34d399" stroke-width="10" stroke-linecap="round" stroke-linejoin="round"><rect x="380" y="190" width="280" height="360" rx="28"/><path d="M220 260h160M660 260h160M220 390h160M660 390h160M520 550v100"/><circle cx="190" cy="260" r="22"/><circle cx="850" cy="260" r="22"/><circle cx="190" cy="390" r="22"/><circle cx="850" cy="390" r="22"/><circle cx="520" cy="680" r="22"/></g>
<rect x="70" y="62" width="310" height="44" rx="22" fill="#34d399"/><text x="225" y="91" text-anchor="middle" font-family="Arial,sans-serif" font-size="20" font-weight="700" fill="#111827">ТЕХНИЧЕСКАЯ ЗАГЛУШКА</text>
<text x="600" y="690" text-anchor="middle" font-family="Arial,sans-serif" font-size="32" font-weight="700" fill="#ffffff">Пять контуров установки: газ, воздух, вода, слив и электрика</text>
<text x="600" y="727" text-anchor="middle" font-family="Arial,sans-serif" font-size="18" fill="#cbd5e1">Не является фотографией реального газового узла</text>
</svg>