<svg xmlns="http://www.w3.org/2000/svg" width="1200" height="760" viewBox="0 0 1200 760" role="img" aria-labelledby="title desc">
<title id="title">Последовательность запуска остановилась</title><desc id="desc">Заглушка до появления реального фото горелочного узла и электродов.</desc>
<defs><linearGradient id="bg" x1="0" y1="0" x2="1" y2="1"><stop stop-color="#0f172a"/><stop offset="1" stop-color="#164e63"/></linearGradient><pattern id="grid" width="40" height="40" patternUnits="userSpaceOnUse"><path d="M40 0H0V40" fill="none" stroke="#ffffff" stroke-opacity=".06"/></pattern></defs>
<rect width="1200" height="760" rx="36" fill="url(#bg)"/><rect width="1200" height="760" rx="36" fill="url(#grid)"/>
<g fill="none" stroke="#22d3ee" stroke-width="10" stroke-linecap="round" stroke-linejoin="round"><rect x="180" y="300" width="150" height="90" rx="18"/><rect x="420" y="300" width="150" height="90" rx="18"/><rect x="660" y="300" width="150" height="90" rx="18"/><path d="M330 345h90M570 345h90"/><path d="M735 270v150M705 300l60 90M765 300l-60 90"/></g>
<rect x="70" y="62" width="310" height="44" rx="22" fill="#22d3ee"/><text x="225" y="91" text-anchor="middle" font-family="Arial,sans-serif" font-size="20" font-weight="700" fill="#111827">ТЕХНИЧЕСКАЯ ЗАГЛУШКА</text>
<text x="600" y="690" text-anchor="middle" font-family="Arial,sans-serif" font-size="32" font-weight="700" fill="#ffffff">Последовательность запуска остановилась</text>
<text x="600" y="727" text-anchor="middle" font-family="Arial,sans-serif" font-size="18" fill="#cbd5e1">Не является фотографией реального газового узла</text>
</svg>