<svg xmlns="http://www.w3.org/2000/svg" width="1200" height="760" viewBox="0 0 1200 760" role="img" aria-labelledby="title desc">
<title id="title">Пароконвектомат, зонт, приток и отвод продуктов сгорания</title><desc id="desc">Заглушка до получения фото реального газового аппарата под вытяжным зонтом.</desc>
<defs><linearGradient id="bg" x1="0" y1="0" x2="1" y2="1"><stop stop-color="#0f172a"/><stop offset="1" stop-color="#0c4a6e"/></linearGradient><pattern id="grid" width="40" height="40" patternUnits="userSpaceOnUse"><path d="M40 0H0V40" fill="none" stroke="#ffffff" stroke-opacity=".06"/></pattern></defs>
<rect width="1200" height="760" rx="36" fill="url(#bg)"/><rect width="1200" height="760" rx="36" fill="url(#grid)"/>
<g fill="none" stroke="#38bdf8" stroke-width="10" stroke-linecap="round" stroke-linejoin="round"><path d="M250 190h540l-80 170H330z"/><path d="M420 360v180M520 360v180M620 360v180"/><path d="M395 485l25 55 25-55M495 485l25 55 25-55M595 485l25 55 25-55"/><rect x="440" y="560" width="160" height="70" rx="15"/></g>
<rect x="70" y="62" width="310" height="44" rx="22" fill="#38bdf8"/><text x="225" y="91" text-anchor="middle" font-family="Arial,sans-serif" font-size="20" font-weight="700" fill="#111827">ТЕХНИЧЕСКАЯ ЗАГЛУШКА</text>
<text x="600" y="690" text-anchor="middle" font-family="Arial,sans-serif" font-size="32" font-weight="700" fill="#ffffff">Пароконвектомат, зонт, приток и отвод продуктов сгорания</text>
<text x="600" y="727" text-anchor="middle" font-family="Arial,sans-serif" font-size="18" fill="#cbd5e1">Не является фотографией реального газового узла</text>
</svg>